<?xml version="1.0" encoding="UTF-8" standalone="no"?>
<svg width="54px" height="17px" viewBox="0 0 54 17" version="1.1" xmlns="http://www.w3.org/2000/svg" xmlns:xlink="http://www.w3.org/1999/xlink" xmlns:sketch="http://www.bohemiancoding.com/sketch/ns">
    <!-- Generator: Sketch 3.0.4 (8053) - http://www.bohemiancoding.com/sketch -->
    <title>Untitled 2</title>
    <desc>Created with Sketch.</desc>
    <defs></defs>
    <g id="Page-1" stroke="none" stroke-width="1" fill="none" fill-rule="evenodd" sketch:type="MSPage">
        <path d="M6.4110118,7.44285212 C6.83348707,7.74856287 7.23473243,8.10522541 7.51284429,8.56379154 C7.79307915,9.00961972 7.90984367,9.5998113 7.71452847,10.1220672 C7.30266815,11.1814398 6.18809771,11.7206796 5.15420093,11.9159948 C4.09270527,12.1091871 2.94416696,11.9372248 1.99731283,11.3512791 C1.08442656,10.7674565 0.305288747,9.83970932 0.10148158,8.70390897 C-0.112940544,7.56810861 0.273443877,6.40895534 0.916710249,5.51305301 C1.55360765,4.60653571 2.48135485,3.8995796 3.46642283,3.4601204 C5.4556657,2.51538926 7.75061932,2.36041089 9.86299569,2.79562411 C11.994479,3.20748443 13.9709839,4.10338677 15.8434622,5.04387192 C17.7329245,5.97798811 19.579927,6.98004001 21.4184375,7.97996892 C25.1018274,9.97345778 28.7746024,11.9711926 32.6724145,13.351137 C36.5362587,14.7735412 40.6803378,15.4804973 44.7564811,14.9646104 C46.7839378,14.7544342 48.7201059,14.0772 50.3378253,12.8989398 C51.9491757,11.7546475 53.0234093,9.94161291 53.106206,7.96510799 C53.2081096,6.00134101 52.4162338,3.99086823 51.0171825,2.57483301 C49.6351152,1.13756789 47.5482147,0.413627845 45.5738328,0.833980127 C44.5908878,1.0356643 43.6015738,1.40506479 42.8797568,2.07805304 C42.1452018,2.74042634 41.8118921,3.78493807 42.0411752,4.76788305 C42.2492283,5.73596709 42.9073557,6.66583729 43.8520868,7.04372975 C44.3170219,7.22843 44.8626307,7.22418401 45.3211968,6.98004001 C45.7840089,6.75075695 46.1364255,6.33889663 46.4102913,5.89519144 C46.1619014,6.35163458 45.8307147,6.78897079 45.3636566,7.05859069 C44.9029675,7.33882554 44.3106529,7.38128537 43.792643,7.20932307 C42.7566233,6.84204557 42.0199453,5.88669948 41.7418334,4.83794176 C41.4403686,3.77856909 41.7694323,2.54935712 42.574046,1.76597332 C43.3659218,0.969851572 44.4040645,0.538884333 45.4528222,0.279879391 C47.5949205,-0.252991431 49.9705478,0.50279348 51.5309464,2.05257715 C53.1125749,3.57688492 54.0509371,5.76568897 53.9978623,7.99907585 C53.9766324,9.1115233 53.6794136,10.2303397 53.1465428,11.2175307 C52.60518,12.2047217 51.8260422,13.0496722 50.9365088,13.7056765 C49.174426,15.0198082 47.0217128,15.7755931 44.8881066,16.0091221 C40.627263,16.5865758 36.2708848,15.8796196 32.2817841,14.4423545 C28.2756994,12.9838595 24.5795715,10.9245579 20.9152885,8.90347015 C19.081024,7.89080329 17.2531285,6.87813643 15.3933881,5.93977426 C13.5315247,5.0014121 11.6696613,4.10763275 9.68254143,3.66392756 C7.71665146,3.20748443 5.61701304,3.30514203 3.78062555,4.11824771 C2.84226338,4.50887811 2.03552668,5.10119269 1.4432121,5.89519144 C0.853020509,6.67645225 0.515464888,7.65939723 0.657705307,8.61049735 C0.789330769,9.56584344 1.42198218,10.41504 2.23508786,10.9882476 C3.05456251,11.5423484 4.10544322,11.7525245 5.10961811,11.6124071 C6.08619412,11.4765356 7.14556679,10.9988626 7.55105814,10.0626234 C7.75274231,9.60405729 7.68480659,9.05420253 7.43429361,8.60625137 C7.19439559,8.14980823 6.81438015,7.76979278 6.4110118,7.44285212" id="Fill-801" fill="#414042" sketch:type="MSShapeGroup"></path>
    </g>
</svg>