<?xml version="1.0" encoding="UTF-8" standalone="no"?>
<svg viewBox="0 0 548 411" version="1.1" xmlns="http://www.w3.org/2000/svg" xmlns:xlink="http://www.w3.org/1999/xlink" xmlns:sketch="http://www.bohemiancoding.com/sketch/ns">
  <g id="Sass-Logo-(Black)">
      <g id="Clip-2"></g>
      <path d="M387.313,310.681 C385.575,309.444 385.864,305.446 391.58,292.994 C393.824,288.105 398.944,279.874 407.845,272.008 C408.876,275.243 409.505,278.345 409.487,281.233 C409.372,300.499 395.626,307.694 387.313,310.681 L387.313,310.681 Z M314.145,327.36 C311.815,328.579 309.679,329.345 308.686,328.754 C307.958,328.319 309.647,326.714 309.647,326.714 C309.647,326.714 321.528,313.934 326.207,308.114 C328.929,304.73 332.085,300.713 335.524,296.22 C335.552,296.669 335.567,297.114 335.567,297.554 C335.532,312.866 320.741,323.204 314.145,327.36 L314.145,327.36 Z M219.167,282.042 C213.671,295.441 202.168,329.72 195.167,327.883 C189.157,326.306 185.497,300.248 193.967,274.603 C198.23,261.694 207.337,246.269 212.687,240.282 C221.3,230.648 230.783,227.497 233.087,231.403 C236.024,236.38 222.613,273.643 219.167,282.042 L219.167,282.042 Z M104.207,360.194 C88.427,377.409 66.381,383.915 56.927,378.435 C46.719,372.516 50.762,347.172 70.127,328.904 C81.93,317.771 97.167,307.517 107.275,301.201 C109.575,299.817 112.955,297.784 117.062,295.323 C117.743,294.935 118.127,294.72 118.127,294.72 L118.112,294.694 C118.905,294.22 119.717,293.733 120.556,293.232 C127.602,319.234 120.77,342.126 104.207,360.194 L104.207,360.194 Z M471.417,236.396 C452.272,236.497 435.69,241.093 421.79,247.944 C416.706,237.798 411.561,228.872 410.697,222.235 C409.688,214.487 408.519,209.865 409.737,200.635 C410.956,191.405 416.296,178.335 416.218,177.356 C416.14,176.377 415.02,171.675 403.978,171.595 C392.935,171.516 383.489,173.719 382.378,176.635 C381.266,179.551 379.14,186.113 377.817,192.955 C375.883,202.968 355.77,238.678 344.35,257.36 C340.615,250.069 337.439,243.64 336.777,238.556 C335.769,230.808 334.599,226.186 335.817,216.955 C337.036,207.726 342.376,194.654 342.298,193.675 C342.22,192.696 341.101,187.995 330.058,187.915 C319.015,187.836 309.569,190.039 308.458,192.955 C307.346,195.871 306.159,202.684 303.897,209.275 C301.635,215.867 274.899,275.436 267.897,290.876 C264.329,298.743 261.224,305.063 259.032,309.38 C259.026,309.369 259.018,309.356 259.018,309.356 C259.018,309.356 258.883,309.643 258.65,310.128 C256.774,313.802 255.657,315.835 255.657,315.835 C255.657,315.835 255.669,315.863 255.69,315.911 C254.202,318.609 252.607,321.115 251.817,321.115 C251.265,321.115 250.16,313.933 252.058,304.075 C256.036,283.411 265.593,251.185 265.498,250.075 C265.448,249.506 267.274,243.891 259.257,240.955 C251.464,238.103 248.689,242.86 247.978,242.875 C247.289,242.89 246.777,244.556 246.777,244.556 C246.777,244.556 255.459,208.316 230.217,208.316 C214.436,208.316 192.569,225.579 181.797,241.227 C174.999,244.935 160.452,252.876 145.018,261.356 C139.09,264.612 133.041,267.941 127.305,271.101 C126.915,270.669 126.526,270.236 126.125,269.808 C95.518,237.153 38.937,214.056 41.337,170.155 C42.21,154.195 47.758,112.171 150.058,61.195 C233.858,19.437 300.944,30.928 312.538,56.395 C329.1,92.778 276.684,160.4 189.657,170.155 C156.499,173.872 139.04,161.022 134.697,156.235 C130.126,151.197 129.444,150.97 127.737,151.915 C124.957,153.456 126.719,157.904 127.737,160.555 C130.336,167.318 140.998,179.31 159.177,185.275 C175.169,190.523 214.099,193.406 261.177,175.195 C313.907,154.799 355.081,98.061 342.987,50.635 C330.688,2.4 250.711,-13.457 175.018,13.435 C129.969,29.439 81.202,54.558 46.138,87.355 C4.446,126.352 -2.202,160.293 0.537,174.475 C10.271,224.866 79.726,257.681 107.539,282.001 C106.166,282.758 104.879,283.469 103.708,284.115 C89.764,291.013 36.82,318.72 23.577,347.995 C8.556,381.202 25.969,405.027 37.497,408.235 C73.216,418.174 109.869,400.297 129.567,370.916 C149.261,341.542 146.856,303.294 137.817,285.835 C137.705,285.618 137.581,285.406 137.466,285.191 C141.066,283.06 144.738,280.893 148.377,278.756 C155.474,274.589 162.44,270.701 168.486,267.411 C165.104,276.68 162.626,287.79 161.337,303.835 C159.823,322.685 167.548,347.05 177.657,356.636 C182.108,360.856 187.463,360.955 190.857,360.955 C202.62,360.955 207.988,351.169 213.897,339.595 C221.146,325.4 227.577,308.875 227.577,308.875 C227.577,308.875 219.505,353.515 241.498,353.515 C249.511,353.515 257.572,343.124 261.162,337.826 C261.172,337.884 261.177,337.915 261.177,337.915 C261.177,337.915 261.386,337.57 261.794,336.878 C262.626,335.606 263.097,334.796 263.097,334.796 C263.097,334.796 263.113,334.712 263.139,334.566 C266.36,328.973 273.504,316.222 284.218,295.195 C298.06,268.028 311.337,233.995 311.337,233.995 C311.337,233.995 312.572,242.316 316.617,256.075 C318.997,264.171 324.053,273.12 328.042,281.702 C324.831,286.157 322.857,288.716 322.857,288.716 C322.857,288.716 322.876,288.763 322.911,288.849 C320.345,292.255 317.468,295.931 314.458,299.515 C303.533,312.527 290.52,327.386 288.777,331.675 C286.725,336.728 287.21,340.445 291.177,343.435 C294.075,345.619 299.234,345.958 304.617,345.595 C314.435,344.935 321.343,342.5 324.751,341.017 C330.064,339.138 336.251,336.183 342.058,331.915 C352.775,324.036 359.239,312.765 358.618,297.835 C358.274,289.607 355.65,281.452 352.331,273.753 C353.304,272.355 354.279,270.944 355.257,269.515 C372.152,244.816 385.257,217.675 385.257,217.675 C385.257,217.675 386.492,225.995 390.538,239.755 C392.585,246.72 396.624,254.317 400.256,261.769 C384.37,274.677 374.518,289.675 371.097,299.515 C364.772,317.712 369.726,325.958 379.018,327.835 C383.227,328.686 389.171,326.757 393.643,324.864 C399.207,323.019 405.893,319.946 412.138,315.356 C422.855,307.477 433.159,296.444 432.538,281.515 C432.254,274.718 430.411,267.972 427.91,261.491 C441.376,255.882 458.811,252.763 481.018,255.356 C528.658,260.919 538.004,290.665 536.218,303.115 C534.431,315.566 524.438,322.409 521.097,324.476 C517.757,326.542 516.737,327.259 517.018,328.796 C517.424,331.03 518.969,330.944 521.817,330.464 C525.739,329.802 546.834,320.337 547.737,297.356 C548.884,268.18 520.931,236.132 471.417,236.396 L471.417,236.396 Z" id="Fill-1" fill="#3b3b3b" sketch:type="MSShapeGroup" mask="url(#mask-2)"></path>
  </g>
</svg>
